# xmcd
#
# Track frame offsets:
#	150
#	25879
#	51608
#	70739
#	96584
#	131594
#	147175
#	171925
#	193532
#	227901
#	257265
#
# Disc length: 3737 seconds
#
# Revision: 1
# Processed by: cddbd v1.5.2PL0 Copyright (c) Steve Scherf et al.
# Submitted via: audiograbber 1.83.01
#
DISCID=9f0e970b
DTITLE=Grateful Dead - 71-08-15 Berkeley Community Theatre, Berkeley CA
DYEAR=1900
DGENRE=
TTITLE0=Big Railroad Blues
TTITLE1=Playing In The Band
TTITLE2=Mr Charlie
TTITLE3=Cumberland Blues
TTITLE4=Sugaree
TTITLE5=Promised Land
TTITLE6=Big Boss Man
TTITLE7=China Cat Sunflower
TTITLE8=I Know You Rider
TTITLE9=Me and Bobby McGee
TTITLE10=Casey Jones
EXTD=
EXTT0=
EXTT1=
EXTT2=
EXTT3=
EXTT4=
EXTT5=
EXTT6=
EXTT7=
EXTT8=
EXTT9=
EXTT10=
PLAYORDER=
